<svg width="72" height="64" version="1.1" xmlns="http://www.w3.org/2000/svg" desc="Created with imagetracer.js version 1.2.6" ><path fill="rgb(244,228,202)" stroke="rgb(244,228,202)" stroke-width="1" opacity="1" d="M 0 0 L 64.5 0 L 65 3 L 54 3 L 54 6 L 49 6 L 49 10 Q 52.7 8.8 51 14 Q 48.3 12.9 49 15.5 L 50.5 15 Q 56.2 13.2 54 19.5 L 53.5 21 Q 56.5 21.9 55 17.5 L 57.5 17 L 62 16.5 L 60 15.5 L 61.5 15 L 64 16.5 L 58 19 Q 59.3 22 55.5 21 L 55.5 22 Q 60.9 20.1 60 23.5 L 58.5 23 L 54.5 22 L 52 23 L 52 19 L 50.5 19 L 49 18.5 L 51 22.5 L 50 22.5 L 48.5 20 L 47 20 L 47 15 L 44.5 15 L 41 16 Q 42.3 19 38.5 18 L 38.5 19 Q 42.9 17.5 42 20.5 L 44 20.5 Q 41.8 21.8 44.5 23 L 47.5 22 L 48 24 L 45.5 25 L 43 23.5 L 42.5 25 L 40.5 20 Q 36.8 18.8 38 22.5 L 41 24 L 40.5 27 Q 39.5 24 34.5 25 L 32 26.5 Q 34.3 25.3 31.5 24 L 26.5 26 L 25.5 24 L 23.5 27 L 23 25.5 L 23.5 24 L 15.5 25 L 13.5 25 L 11.5 26 L 10.5 24 L 8.5 26 L 6 25.5 Q 6.7 22.9 4 24 L 3.5 26 L 2 25.5 Q 2.7 28.1 0 27 L 0 0 Z M 28 19 Q 26 22 29 21 L 28 19 Z M 37 19 L 36 23 L 37 23 L 37 19 Z M 12 20 L 11 23 L 12 23 L 12 20 Z M 31 20 Q 30 22 34 22 L 35 23 Q 36 18 31 20 Z " /><path fill="rgb(244,228,202)" stroke="rgb(244,228,202)" stroke-width="1" opacity="1" d="M 62.5 20 L 64 20.5 L 63 23 L 66 24.5 L 63.5 25 L 62 24.5 L 62.5 23 Q 60.3 23.8 61 21.5 L 62.5 20 Z " /><path fill="rgb(244,228,202)" stroke="rgb(244,228,202)" stroke-width="1" opacity="1" d="M 67.5 21 L 71 21.5 L 68.5 23 L 66 22.5 L 67.5 21 Z " /><path fill="rgb(242,225,201)" stroke="rgb(242,225,201)" stroke-width="1" opacity="1" d="M 65 0 L 72 0 L 72 17.5 L 72 19.5 Q 73.5 23.9 70.5 23 L 70.5 21 L 67 21.5 Q 69.3 22.8 66.5 24 L 65 24.5 L 67.5 25 L 70.5 24 L 72 24.5 Q 69.6 27.1 63.5 26 L 64.5 23 L 62.5 24 L 63 22.5 L 64 20.5 L 62.5 20 L 60.5 23 L 60 21.5 L 61.5 17 L 57 17.5 L 58.5 20 L 55 17.5 Q 53.3 22.3 57.5 21 L 57.5 22 L 54.5 23 L 54.5 21 L 53 20.5 L 54 15 L 49.5 16 L 49 14 Q 52.7 15.2 51 10 Q 47.3 11.2 49 6 L 54 6 L 54.5 3 L 65 3 L 65 0 Z " /><path fill="rgb(242,225,201)" stroke="rgb(242,225,201)" stroke-width="1" opacity="1" d="M 44.5 15 L 47 15 L 47 20 L 49 20 L 49.5 18 L 52 19 L 52 24 Q 49 23 50 26 L 44 26 L 43 23.5 Q 45.3 22.3 42.5 21 L 41 21.5 L 42 19 L 38 18.5 L 41 18 Q 39.8 15 43.5 16 L 44.5 15 Z M 48 22 L 45 23 L 46 25 L 48 24 L 48 22 Z " /><path fill="rgb(242,225,201)" stroke="rgb(242,225,201)" stroke-width="1" opacity="1" d="M 27.5 19 Q 29 22.5 30.5 20 Q 36.4 17.9 35 22.5 L 33.5 22 L 30.5 21 L 30.5 23 L 27 21 L 27.5 19 Z " /><path fill="rgb(242,225,201)" stroke="rgb(242,225,201)" stroke-width="1" opacity="1" d="M 36.5 19 L 37 22.5 L 36 22.5 L 36.5 19 Z " /><path fill="rgb(242,225,201)" stroke="rgb(242,225,201)" stroke-width="1" opacity="1" d="M 11.5 20 L 12 22.5 L 11 22.5 L 11.5 20 Z " /><path fill="rgb(242,225,201)" stroke="rgb(242,225,201)" stroke-width="1" opacity="1" d="M 10.5 24 L 10.5 27 Q 8.3 27.8 9 25.5 L 10.5 24 Z " /><path fill="rgb(242,225,201)" stroke="rgb(242,225,201)" stroke-width="1" opacity="1" d="M 14.5 24 L 18 26.5 L 17.5 28 L 17 26 L 14.5 24 Z " /><path fill="rgb(242,225,201)" stroke="rgb(242,225,201)" stroke-width="1" opacity="1" d="M 20.5 24 L 24 24.5 L 20.5 25 L 20.5 24 Z " /><path fill="rgb(242,225,201)" stroke="rgb(242,225,201)" stroke-width="1" opacity="1" d="M 30.5 24 L 33 25.5 L 31.5 25 L 30.5 24 Z " /><path fill="rgb(242,225,201)" stroke="rgb(242,225,201)" stroke-width="1" opacity="1" d="M 2.5 25 L 3.5 27 L 2.5 25 Z " /><path fill="rgb(242,225,201)" stroke="rgb(242,225,201)" stroke-width="1" opacity="1" d="M 27.5 25 L 29 25.5 L 26.5 27 L 27.5 25 Z " /><path fill="rgb(242,225,201)" stroke="rgb(242,225,201)" stroke-width="1" opacity="1" d="M 34.5 25 L 39 25.5 L 34.5 26 L 34.5 25 Z " /><path fill="rgb(221,202,167)" stroke="rgb(221,202,167)" stroke-width="1" opacity="1" d="M 59.5 19 L 60.5 21 L 59 20.5 L 58.5 22 L 58 20.5 L 59.5 19 Z " /><path fill="rgb(221,202,167)" stroke="rgb(221,202,167)" stroke-width="1" opacity="1" d="M 39.5 20 Q 41.8 19.3 41 21.5 L 42.5 25 L 44 24.5 Q 43.1 27.5 47.5 26 L 46.5 28 L 42 27 L 41.5 29 L 39.5 26 L 41 26.5 L 40.5 23 Q 39.3 25.3 38 22.5 L 39.5 20 Z " /><path fill="rgb(221,202,167)" stroke="rgb(221,202,167)" stroke-width="1" opacity="1" d="M 52.5 23 L 54.5 23 Q 56.8 22.3 56 24.5 L 58 25.5 L 58.5 23 L 59.5 25 L 60 23 Q 62.7 21.9 62 24.5 Q 63.5 27.5 69.5 26 L 68.5 24 L 66.5 25 L 67.5 23 L 70 23 L 72 27 L 63 28 Q 64.2 24.3 59 26 L 57.5 29 Q 55.4 25.6 50 25.5 L 52 25 L 52.5 23 Z " /><path fill="rgb(221,202,167)" stroke="rgb(221,202,167)" stroke-width="1" opacity="1" d="M 4 25 L 10.5 27 L 10.5 25 L 12.5 26 L 14.5 25 L 16.5 26 L 23 25 L 23.5 28 L 25.5 25 L 26 28.5 L 22 29.5 Q 23.5 25.1 20.5 26 L 16 29.5 L 14 26.5 L 11.5 28 Q 6 29.5 4.5 27 L 4 29 L 0 27.5 L 2.5 26 L 4 26.5 L 4 25 Z " /><path fill="rgb(221,202,167)" stroke="rgb(221,202,167)" stroke-width="1" opacity="1" d="M 29 25 Q 32.8 23.5 32 26.5 L 33.5 26 L 38 26.5 Q 35.9 28.9 30.5 28 L 29 25 Z " /><path fill="rgb(151,124,56)" stroke="rgb(151,124,56)" stroke-width="1" opacity="1" d="M 56 23 Q 59 22 58 25 Q 55 26 56 23 Z " /><path fill="rgb(151,124,56)" stroke="rgb(151,124,56)" stroke-width="1" opacity="1" d="M 20.5 26 L 22 26 L 22 30 L 24 30 L 24.5 28 L 26 28.5 L 26.5 27 L 28.5 27 L 35.5 28 L 38.5 26 L 41 30 Q 44.8 28.5 44 31.5 L 44.5 33 L 41.5 32 L 38.5 33 L 37 30 L 33.5 29 L 33 30.5 L 36 31.5 L 34.5 34 L 32.5 33 L 31 33.5 L 30.5 32 L 29.5 33 L 27 31.5 L 28 33.5 L 26.5 33 L 24.5 32 Q 23 34.5 21.5 31 L 20 31.5 L 20.5 33 Q 18.3 33.8 19 31.5 L 18 31.5 L 17.5 33 L 17 31 L 14.5 30 L 13 33 L 11 32.5 L 11.5 31 L 8 30.5 L 8.5 28 L 13.5 27 L 16 28 Q 15 31 18 30 L 20.5 26 Z M 39 27 L 37 29 Q 36 31 40 30 L 39 27 Z M 29 28 Q 26 30 29 31 L 30 31 L 29 28 Z " /><path fill="rgb(151,124,56)" stroke="rgb(151,124,56)" stroke-width="1" opacity="1" d="M 48.5 26 L 50.5 27 L 52.5 26 L 57.5 29 L 61 28.5 Q 61.9 31.5 57.5 30 Q 56.4 27.3 53 28 L 53 31 Q 50.3 29.9 51 32.5 L 50 32.5 L 49.5 30 L 47.5 34 L 46 30.5 L 49 29.5 L 46 28.5 L 48.5 26 Z " /><path fill="rgb(151,124,56)" stroke="rgb(151,124,56)" stroke-width="1" opacity="1" d="M 62.5 26 L 63 28 L 66 28.5 L 63.5 30 Q 61 29 62.5 26 Z " /><path fill="rgb(151,124,56)" stroke="rgb(151,124,56)" stroke-width="1" opacity="1" d="M 4.5 27 L 7 28 L 6.5 31 L 5.5 29 L 5 31 Q 2.3 32.1 3 29.5 L 4.5 27 Z " /><path fill="rgb(151,124,56)" stroke="rgb(151,124,56)" stroke-width="1" opacity="1" d="M 68.5 27 Q 66.9 28.8 70 30.5 L 69.5 32 L 67 31.5 L 67 29.5 L 68.5 27 Z " /><path fill="rgb(151,124,56)" stroke="rgb(151,124,56)" stroke-width="1" opacity="1" d="M 65.5 31 L 67 33.5 L 65 34 L 65.5 31 Z " /><path fill="rgb(103,86,13)" stroke="rgb(103,86,13)" stroke-width="1" opacity="1" d="M 60.5 26 L 59.5 28 L 60.5 26 Z " /><path fill="rgb(103,86,13)" stroke="rgb(103,86,13)" stroke-width="1" opacity="1" d="M 55.5 28 L 59 30 L 60.5 34 L 62.5 34 L 65 34.5 L 53.5 35 L 51.5 35 Q 49.3 35.8 50 33.5 L 49.5 32 L 52 33.5 L 51 31.5 L 53 32.5 L 53.5 34 L 55.5 33 L 57.5 34 L 57.5 31 L 54.5 32 L 55 30.5 L 55.5 28 Z " /><path fill="rgb(103,86,13)" stroke="rgb(103,86,13)" stroke-width="1" opacity="1" d="M 68.5 28 L 71 29.5 L 69.5 30 L 68.5 28 Z " /><path fill="rgb(103,86,13)" stroke="rgb(103,86,13)" stroke-width="1" opacity="1" d="M 61.5 29 L 63 31.5 L 62 31.5 L 61.5 29 Z " /><path fill="rgb(103,86,13)" stroke="rgb(103,86,13)" stroke-width="1" opacity="1" d="M 66.5 29 L 67 31 L 65 30.5 L 66.5 29 Z " /><path fill="rgb(103,86,13)" stroke="rgb(103,86,13)" stroke-width="1" opacity="1" d="M 45.5 32 L 46 34.5 L 45 34.5 L 45.5 32 Z " /><path fill="rgb(103,86,13)" stroke="rgb(103,86,13)" stroke-width="1" opacity="1" d="M 66.5 34 L 72 34.5 L 66.5 35 L 66.5 34 Z " /><path fill="rgb(127,110,25)" stroke="rgb(127,110,25)" stroke-width="1" opacity="1" d="M 59.5 26 L 62 26.5 L 63.5 30 L 66.5 28 L 65 30.5 Q 64.3 34.3 66.5 35 L 69 35.5 L 60.5 36 L 60.5 35 L 65 34.5 L 61.5 33 Q 60.3 35.3 59 32.5 Q 57.8 28.8 61.5 30 L 60.5 28 L 59 28.5 L 59.5 26 Z " /><path fill="rgb(127,110,25)" stroke="rgb(127,110,25)" stroke-width="1" opacity="1" d="M 38.5 27 L 42.5 33 Q 46.3 32 45 35 L 42.5 34 L 39.5 35 L 37.5 35 L 35 33.5 L 36 31.5 L 34 31.5 L 37 30 L 38.5 27 Z M 37 30 L 37 32 L 39 31 L 38 33 L 41 33 L 40 32 Q 41 28 37 30 Z " /><path fill="rgb(127,110,25)" stroke="rgb(127,110,25)" stroke-width="1" opacity="1" d="M 43.5 27 L 44 29 L 47.5 30 L 50 28.5 L 50 30.5 L 49.5 32 L 48.5 30 L 46 30.5 L 47.5 34 L 50 33 Q 51.2 36.7 46 35 L 46 32 Q 43.3 33.1 44 30.5 L 43.5 27 Z " /><path fill="rgb(127,110,25)" stroke="rgb(127,110,25)" stroke-width="1" opacity="1" d="M 69.5 27 L 72 28.5 Q 74.7 36.3 67.5 34 L 66 31.5 Q 67.8 28.3 69.5 32 L 71 31.5 L 69.5 27 Z " /><path fill="rgb(127,110,25)" stroke="rgb(127,110,25)" stroke-width="1" opacity="1" d="M 28.5 28 L 30 30.5 L 28 31 Q 26.8 34 30.5 33 L 29.5 35 Q 28 31.5 26.5 34 L 25 33.5 L 27 33 L 28 30.5 Q 25.8 29.3 28.5 28 Z " /><path fill="rgb(127,110,25)" stroke="rgb(127,110,25)" stroke-width="1" opacity="1" d="M 54.5 28 L 55 30.5 L 54.5 32 L 57.5 31 L 57.5 34 L 54.5 33 Q 52.8 36.8 51 33.5 L 54.5 28 Z M 52 32 L 52 34 L 54 33 L 52 32 Z " /><path fill="rgb(127,110,25)" stroke="rgb(127,110,25)" stroke-width="1" opacity="1" d="M 12.5 30 L 15 30.5 L 14.5 33 L 12.5 34 L 13 32.5 L 12.5 31 L 11 31.5 L 12.5 30 Z " /><path fill="rgb(127,110,25)" stroke="rgb(127,110,25)" stroke-width="1" opacity="1" d="M 4 31 Q 7.8 29.5 7 32.5 L 4 32.5 L 4 31 Z " /><path fill="rgb(127,110,25)" stroke="rgb(127,110,25)" stroke-width="1" opacity="1" d="M 20.5 31 L 23 32.5 L 21.5 33 L 20.5 31 Z " /><path fill="rgb(127,110,25)" stroke="rgb(127,110,25)" stroke-width="1" opacity="1" d="M 2.5 51 L 3.5 53 L 1.5 54 L 1 52.5 L 2.5 51 Z " /><path fill="rgb(150,161,3)" stroke="rgb(150,161,3)" stroke-width="1" opacity="1" d="M 3.5 31 L 4 33 L 7 33.5 L 3 34 L 3.5 31 Z " /><path fill="rgb(150,161,3)" stroke="rgb(150,161,3)" stroke-width="1" opacity="1" d="M 8.5 32 L 12 33.5 L 8 34 L 8.5 32 Z " /><path fill="rgb(150,161,3)" stroke="rgb(150,161,3)" stroke-width="1" opacity="1" d="M 13.5 33 L 17 33.5 L 13.5 34 L 13.5 33 Z " /><path fill="rgb(150,161,3)" stroke="rgb(150,161,3)" stroke-width="1" opacity="1" d="M 18.5 33 Q 24.6 31.9 27 34.5 L 23.5 35 L 21.5 34 L 19.5 34 L 18.5 33 Z " /><path fill="rgb(150,161,3)" stroke="rgb(150,161,3)" stroke-width="1" opacity="1" d="M 30.5 34 L 36 34.5 L 30 35.5 Q 31.3 38.3 32.5 36 Q 34.8 35.3 34 37.5 L 31.5 39 L 28.5 37 L 24.5 38 L 24.5 37 Q 29.7 37.7 30.5 34 Z " /><path fill="rgb(150,161,3)" stroke="rgb(150,161,3)" stroke-width="1" opacity="1" d="M 42.5 34 L 43 36 L 47.5 37 L 49.5 35 L 59.5 35 L 59.5 36 L 49 36.5 L 72 37 L 71.5 39 L 62.5 39 L 59.5 38 L 53.5 39 Q 52 36.5 46.5 38 L 44.5 38 Q 38.3 36.2 36.5 39 L 35 36 L 41.5 36 L 42.5 34 Z " /><path fill="rgb(150,161,3)" stroke="rgb(150,161,3)" stroke-width="1" opacity="1" d="M 0 35 L 7 35.5 L 0 37 L 0 35 Z " /><path fill="rgb(150,161,3)" stroke="rgb(150,161,3)" stroke-width="1" opacity="1" d="M 12.5 35 L 15 35.5 L 12.5 36 L 12.5 35 Z " /><path fill="rgb(150,161,3)" stroke="rgb(150,161,3)" stroke-width="1" opacity="1" d="M 14.5 37 L 23 37.5 L 14.5 38 L 14.5 37 Z " /><path fill="rgb(150,161,3)" stroke="rgb(150,161,3)" stroke-width="1" opacity="1" d="M 1.5 39 Q 3.8 38.3 3 40.5 L 1 42.5 Q 4.8 44.3 1.5 46 L 0 42.5 L 1.5 39 Z " /><path fill="rgb(150,161,3)" stroke="rgb(150,161,3)" stroke-width="1" opacity="1" d="M 57.5 39 L 60 40 L 59 47.5 L 62 47.5 L 63 43.5 L 61 40.5 L 66 40 Q 64.5 43.7 67.5 43 Q 69.8 37.8 72 41.5 L 71 44.5 L 72 47.5 L 69 48.5 L 72 49 L 72 59.5 L 71 60.5 L 72 63.5 L 71 63.5 L 70.5 62 L 69.5 64 L 65 63.5 L 64 60 L 62 60.5 L 62.5 63 L 64 63.5 L 57.5 64 L 55.5 64 L 53.5 63 L 51.5 63 L 46.5 64 L 44.5 64 Q 38.4 65.3 39 62.5 L 39.5 61 Q 36.5 60.2 38 64 L 36 64 Q 37.5 60.3 34.5 61 L 35 62.5 Q 35.7 65.5 32 64 L 33 57 Q 30.3 55.9 31 58.5 L 31 60.5 L 30.5 64 L 28.5 58 L 28 61.5 L 29 64 L 24 64 L 24 62.5 L 23.5 61 L 25 61.5 Q 25.7 58.5 22 60 L 23 63.5 L 21.5 64 L 19 63.5 L 20 60.5 Q 18.5 57.5 17 60.5 L 18 64 Q 12.8 66.1 14 61.5 L 13 61.5 Q 14.1 64.8 11.5 64 L 11.5 62 Q 9.3 61.3 10 63.5 L 9 63.5 L 10 57.5 L 9 57.5 Q 10.8 62.8 5.5 61 L 4.5 64 L 3 63.5 L 5 62.5 L 4.5 60 L 1 62.5 L 1.5 64 Q -1.1 64.8 0 61.5 L 0 59.5 L 1 55.5 L 0 51 Q 2.7 52.1 2 49.5 L 3.5 47 L 5 50 Q 7.7 51.1 7 48.5 Q 8.3 45.7 9.5 48 L 12.5 50 L 14.5 50 L 16.5 51 L 18.5 48 L 22.5 50 L 24.5 46 L 25.5 48 L 27 47.5 L 27.5 51 L 28 46 Q 25 47 26 44 L 23 44 L 22.5 46 L 18 45.5 Q 18.8 42.9 15.5 44 L 13.5 43 L 13 45.5 L 14 47.5 L 11 45.5 L 13 44.5 L 12 41.5 L 15.5 40 Q 17.8 39.3 17 41.5 L 19.5 40 L 23.5 41 Q 24.8 38.8 29.5 40 L 31.5 41 L 34.5 40 L 37 40.5 L 37.5 42 L 38 40 L 41.5 41 L 43.5 40 L 43.5 42 L 46 41.5 L 45.5 40 Q 48.1 39.3 47 42 L 49.5 42 Q 50.8 44.3 52 41.5 Q 51.1 38.1 56.5 40 L 57.5 39 Z M 33 43 Q 31 46 34 45 L 33 43 Z M 38 43 L 36 46 L 38 45 L 38 43 Z M 40 43 L 40 45 L 39 49 L 40 52 L 40 51 Q 43 49 41 48 L 42 45 L 40 43 Z M 45 43 L 43 46 L 47 45 L 50 46 Q 51 43 48 44 L 45 43 Z M 30 44 L 30 50 L 30 47 L 32 47 L 30 46 L 30 44 Z M 35 45 Q 35 48 32 47 L 31 50 L 34 51 L 35 49 L 37 49 L 39 46 L 35 47 L 35 45 Z M 57 45 L 51 49 L 52 51 L 56 50 L 55 49 L 59 51 L 57 45 Z M 69 45 L 69 48 Q 72 47 69 45 Z M 46 47 L 43 49 L 45 53 Q 44 55 47 54 L 46 50 Q 48 48 46 47 Z M 65 47 L 67 49 L 68 51 L 68 49 L 65 47 Z M 61 49 L 60 53 L 61 53 L 61 49 Z M 36 50 Q 36 54 38 51 L 36 50 Z M 48 50 L 48 52 L 51 52 L 48 50 Z M 3 51 L 1 53 L 2 54 L 4 53 L 3 51 Z M 68 52 L 69 53 L 70 54 Q 71 51 68 52 Z M 5 53 L 3 55 L 5 56 L 5 53 Z M 7 53 L 7 58 L 7 57 L 10 56 L 9 53 L 8 55 L 7 53 Z M 23 53 L 22 56 L 24 56 L 23 53 Z M 27 53 L 25 55 L 26 58 L 28 54 L 27 53 Z M 30 53 Q 27 58 31 57 L 30 53 Z M 18 54 L 17 57 L 18 57 L 18 54 Z M 48 54 L 46 56 L 47 58 L 49 57 L 48 54 Z M 67 54 L 67 56 L 69 55 L 67 54 Z M 54 55 L 54 56 L 56 56 L 54 55 Z M 46 56 L 44 61 Q 46 64 47 61 L 46 56 Z M 67 56 Q 65 59 68 58 L 67 56 Z M 50 57 L 50 60 Q 47 59 48 62 L 51 62 L 52 58 L 50 57 Z M 27 58 L 26 62 L 27 62 L 27 58 Z M 56 58 Q 54 61 57 60 L 56 58 Z M 59 59 L 57 63 L 60 63 L 59 59 Z M 68 60 L 66 62 L 68 63 L 68 60 Z " /><path fill="rgb(150,161,3)" stroke="rgb(150,161,3)" stroke-width="1" opacity="1" d="M 10.5 41 L 11 43 L 8 42.5 L 10.5 41 Z " /><path fill="rgb(150,161,3)" stroke="rgb(150,161,3)" stroke-width="1" opacity="1" d="M 3.5 42 L 8 44 L 7.5 46 L 4 44.5 L 4.5 43 L 3.5 42 Z " /><path fill="rgb(171,175,20)" stroke="rgb(171,175,20)" stroke-width="1" opacity="1" d="M 7.5 28 L 8 31 Q 12.1 29.7 11 33 L 8.5 32 L 8 34 L 16.5 34 L 17.5 33 L 20.5 35 L 22.5 34 L 26.5 35 L 29 34 L 28 36.5 L 32.5 39 L 34 36 L 31.5 37 L 30.5 35 L 42 35.5 L 35 36 L 36.5 39 Q 38.3 36.2 44.5 38 L 46.5 38 L 54.5 39 L 59.5 38 L 62.5 39 L 71.5 39 L 72 40.5 Q 69.7 38.7 67.5 43 Q 64.5 43.7 66 40 L 61.5 40 L 62 41.5 L 62.5 43 L 65 41.5 L 64.5 44 Q 63.3 41.8 62 44.5 Q 60.5 48.9 63.5 48 L 63.5 46 L 67.5 48 L 69.5 44 L 70.5 47 L 71.5 44 L 72 46.5 L 71.5 49 L 68.5 48 L 67.5 51 L 67 49 L 64.5 48 L 62.5 49 Q 60.8 45.9 59 47.5 L 60 40 L 57.5 39 L 52 40 L 50.5 43 L 47 42 Q 48.1 39.3 45.5 40 L 45.5 42 L 43 41.5 L 43.5 40 L 39.5 42 L 39.5 40 Q 37.3 39.3 38 41.5 L 37 41.5 L 36.5 40 L 34.5 40 L 30.5 41 Q 29.3 38.8 24.5 40 L 24.5 42 Q 23.8 39.3 19.5 40 L 19.5 42 L 17 41.5 L 17.5 40 L 15 40.5 L 16 42.5 L 15.5 44 Q 18.8 42.9 18 45.5 L 23 45.5 Q 22.2 42.5 26 44 Q 25 47 28 46 L 28 50.5 L 28.5 52 L 26.5 47 L 25 47.5 L 24.5 46 L 22.5 50 L 19.5 49 L 17 49.5 L 16.5 51 L 13.5 49 L 10 49.5 L 10.5 48 L 8.5 47 L 7 50 Q 4.3 51.1 5 48.5 L 3 47.5 L 4 49.5 L 2 49.5 Q 2.8 51.8 0.5 51 L 0 48.5 Q -1.3 43.8 1 42.5 L 0.5 41 Q 1.7 43.3 3 40.5 Q 3.8 38.3 1.5 39 L 0 39.5 Q -1.1 36.2 1.5 37 L 7 35.5 L 0 35 L 0.5 30 L 2 30.5 L 2.5 29 L 3 34 L 7 34 L 7.5 28 Z M 13 35 L 13 36 L 15 36 L 13 35 Z M 15 37 L 15 38 L 23 38 L 15 37 Z M 25 37 L 25 38 L 28 38 L 25 37 Z M 14 40 L 12 42 L 13 44 L 15 43 L 14 40 Z M 11 41 L 8 43 L 11 43 L 11 41 Z M 2 43 L 2 46 Q 5 45 2 43 Z M 6 43 L 4 45 L 8 46 L 8 44 L 6 43 Z M 12 45 L 13 47 Q 14 44 12 45 Z " /><path fill="rgb(171,175,20)" stroke="rgb(171,175,20)" stroke-width="1" opacity="1" d="M 43.5 35 L 72 36.5 L 49.5 37 L 47.5 37 L 43.5 36 L 43.5 35 Z " /><path fill="rgb(171,175,20)" stroke="rgb(171,175,20)" stroke-width="1" opacity="1" d="M 53.5 41 L 56 41.5 L 56 43.5 L 59 50.5 L 57 50.5 L 56.5 52 L 56 50 L 48 52 Q 46.9 49.3 49.5 50 L 51 50.5 Q 50.3 48.3 52.5 49 L 56 45.5 L 55 44.5 L 53.5 41 Z " /><path fill="rgb(171,175,20)" stroke="rgb(171,175,20)" stroke-width="1" opacity="1" d="M 27.5 43 L 29.5 44 L 31 43.5 L 30 46 L 34 47 L 34 45 Q 31.3 46.1 32 43.5 L 35 45.5 Q 34.3 47.8 36.5 47 L 36 45.5 L 37.5 43 L 38 44.5 L 37.5 46 L 39 46.5 Q 37 50.2 35 48.5 Q 34.2 51.1 37.5 50 L 36.5 52 Q 35 48.5 33.5 51 L 31 49.5 L 32 47 Q 29 45.8 30 49.5 L 29 49.5 Q 30.3 43.4 27.5 44 L 27.5 43 Z " /><path fill="rgb(171,175,20)" stroke="rgb(171,175,20)" stroke-width="1" opacity="1" d="M 39.5 43 L 42 44.5 L 41 47.5 Q 42.3 50.3 43.5 48 L 45 47.5 L 43 44.5 L 44.5 43 L 47.5 44 Q 51.3 43 50 46 L 46.5 45 Q 43.5 46.5 46.5 48 L 48 47.5 L 46 50.5 L 48 57.5 L 47 57.5 L 46 55.5 L 46.5 54 Q 44.3 54.8 45 52.5 L 43.5 49 L 42.5 51 L 41.5 49 L 39.5 52 L 39 48.5 L 40 44.5 L 39.5 43 Z " /><path fill="rgb(171,175,20)" stroke="rgb(171,175,20)" stroke-width="1" opacity="1" d="M 53.5 44 L 54 45.5 L 51.5 47 L 51.5 46 Q 54 46.7 53.5 44 Z " /><path fill="rgb(171,175,20)" stroke="rgb(171,175,20)" stroke-width="1" opacity="1" d="M 60.5 49 L 62.5 55 L 64 54.5 Q 62.5 57.5 61 54.5 L 60.5 49 Z " /><path fill="rgb(171,175,20)" stroke="rgb(171,175,20)" stroke-width="1" opacity="1" d="M 12.5 51 L 13.5 53 L 12.5 51 Z " /><path fill="rgb(171,175,20)" stroke="rgb(171,175,20)" stroke-width="1" opacity="1" d="M 64.5 51 L 63.5 53 L 64.5 51 Z " /><path fill="rgb(171,175,20)" stroke="rgb(171,175,20)" stroke-width="1" opacity="1" d="M 4.5 53 L 5 55.5 L 3 55.5 L 2.5 57 L 2 55.5 L 4.5 53 Z " /><path fill="rgb(171,175,20)" stroke="rgb(171,175,20)" stroke-width="1" opacity="1" d="M 6.5 53 L 7.5 55 L 8.5 53 L 10 55.5 L 10 57.5 Q 8.1 62.9 11.5 62 L 10.5 64 L 9.5 62 L 9 64 L 3.5 63 Q 2.3 65.3 1 62.5 L 4.5 60 L 9 61 Q 10 57.2 7.5 56 L 6.5 58 L 6.5 53 Z " /><path fill="rgb(171,175,20)" stroke="rgb(171,175,20)" stroke-width="1" opacity="1" d="M 18.5 53 L 18 54.5 L 17.5 57 L 17 54.5 L 18.5 53 Z " /><path fill="rgb(171,175,20)" stroke="rgb(171,175,20)" stroke-width="1" opacity="1" d="M 22.5 53 L 24 55.5 L 22 56 L 22.5 53 Z " /><path fill="rgb(171,175,20)" stroke="rgb(171,175,20)" stroke-width="1" opacity="1" d="M 24.5 53 L 26.5 53 L 28 53.5 L 26 57.5 L 27 61.5 L 26 61.5 L 25.5 58 L 24 58.5 L 25 54.5 L 24.5 53 Z " /><path fill="rgb(171,175,20)" stroke="rgb(171,175,20)" stroke-width="1" opacity="1" d="M 29.5 53 L 31 57 L 34 55.5 L 34.5 54 L 35 55.5 L 33 57.5 Q 33.8 62.3 31.5 64 L 30.5 60 L 29.5 64 L 28 58.5 L 29 58.5 L 29.5 60 L 31 57 Q 27.2 58.2 29.5 53 Z " /><path fill="rgb(171,175,20)" stroke="rgb(171,175,20)" stroke-width="1" opacity="1" d="M 50.5 53 L 52 55.5 L 50 54.5 L 50.5 53 Z " /><path fill="rgb(171,175,20)" stroke="rgb(171,175,20)" stroke-width="1" opacity="1" d="M 67 54 L 69 54.5 L 67.5 58 L 64 60.5 L 65 63.5 L 63.5 63 L 62 62.5 L 62.5 60 L 66 57.5 L 67 54 Z " /><path fill="rgb(171,175,20)" stroke="rgb(171,175,20)" stroke-width="1" opacity="1" d="M 53.5 55 L 56 55.5 L 53.5 56 L 53.5 55 Z " /><path fill="rgb(171,175,20)" stroke="rgb(171,175,20)" stroke-width="1" opacity="1" d="M 39.5 57 L 40.5 59 L 39.5 57 Z " /><path fill="rgb(171,175,20)" stroke="rgb(171,175,20)" stroke-width="1" opacity="1" d="M 50 57 L 52 57.5 L 50.5 62 L 48 61.5 Q 47.3 58.9 50 60 L 50 57 Z " /><path fill="rgb(171,175,20)" stroke="rgb(171,175,20)" stroke-width="1" opacity="1" d="M 57.5 57 L 58.5 59 Q 59.8 56.8 61 59.5 L 60 63 L 56.5 64 L 58 61.5 L 56.5 60 Q 54.3 60.8 55 58.5 L 57 58.5 L 57.5 57 Z " /><path fill="rgb(171,175,20)" stroke="rgb(171,175,20)" stroke-width="1" opacity="1" d="M 44 58 L 47 59.5 L 45.5 62 L 44 58 Z " /><path fill="rgb(171,175,20)" stroke="rgb(171,175,20)" stroke-width="1" opacity="1" d="M 1.5 59 L 0.5 61 L 1.5 59 Z " /><path fill="rgb(171,175,20)" stroke="rgb(171,175,20)" stroke-width="1" opacity="1" d="M 18.5 59 L 20 61.5 L 18.5 64 L 17 60.5 L 18.5 59 Z " /><path fill="rgb(171,175,20)" stroke="rgb(171,175,20)" stroke-width="1" opacity="1" d="M 69.5 59 L 72 60.5 L 70.5 60 L 69.5 59 Z " /><path fill="rgb(171,175,20)" stroke="rgb(171,175,20)" stroke-width="1" opacity="1" d="M 22 60 Q 25.8 58.5 25 61.5 L 23.5 64 L 22 60 Z " /><path fill="rgb(171,175,20)" stroke="rgb(171,175,20)" stroke-width="1" opacity="1" d="M 40.5 60 L 39 62.5 L 38.5 64 L 38 61 L 40.5 60 Z " /><path fill="rgb(171,175,20)" stroke="rgb(171,175,20)" stroke-width="1" opacity="1" d="M 67.5 60 L 69 63.5 L 66 63.5 L 67.5 60 Z " /><path fill="rgb(171,175,20)" stroke="rgb(171,175,20)" stroke-width="1" opacity="1" d="M 13.5 61 L 14 63.5 L 13 63.5 L 13.5 61 Z " /><path fill="rgb(171,175,20)" stroke="rgb(171,175,20)" stroke-width="1" opacity="1" d="M 34.5 61 Q 37.1 60.2 36 63.5 L 35 63.5 L 34.5 61 Z " /><path fill="rgb(171,175,20)" stroke="rgb(171,175,20)" stroke-width="1" opacity="1" d="M 49.5 63 L 52 63.5 L 49.5 64 L 49.5 63 Z " /></svg>