<svg xmlns="http://www.w3.org/2000/svg" viewBox="0 0 64 64" width="64" height="64">
  <circle cx="32" cy="32" r="30" fill="#f5f5f0"/>
  <ellipse cx="22" cy="36" rx="10" ry="12" fill="#81c784"/>
  <ellipse cx="42" cy="36" rx="10" ry="12" fill="#81c784"/>
  <ellipse cx="32" cy="30" rx="20" ry="22" fill="#a5d6a7"/>
  <circle cx="32" cy="18" r="2" fill="#4caf50"/>
  <path d="M32 16 Q28 8 26 3" stroke="#66bb6a" stroke-width="2.5" fill="none" stroke-linecap="round"/>
  <path d="M32 16 Q36 8 38 3" stroke="#66bb6a" stroke-width="2.5" fill="none" stroke-linecap="round"/>
  <circle cx="26" cy="28" r="4" fill="#fff"/>
  <circle cx="38" cy="28" r="4" fill="#fff"/>
  <circle cx="26" cy="28" r="2" fill="#ff8a65"/>
  <circle cx="38" cy="28" r="2" fill="#ff8a65"/>
  <path d="M28 38 Q32 42 36 38" stroke="#4caf50" stroke-width="2" fill="none" stroke-linecap="round"/>
  <circle cx="32" cy="46" r="12" fill="#fff" stroke="#81c784" stroke-width="2"/>
  <circle cx="32" cy="46" r="8" fill="none" stroke="#ff7043" stroke-width="1.5"/>
  <circle cx="32" cy="46" r="4" fill="none" stroke="#ff7043" stroke-width="1.5"/>
  <line x1="32" y1="34" x2="32" y2="58" stroke="#ff7043" stroke-width="1.5"/>
  <line x1="20" y1="46" x2="44" y2="46" stroke="#ff7043" stroke-width="1.5"/>
</svg>