<svg width="414" height="163" version="1.1" xmlns="http://www.w3.org/2000/svg" desc="Created with imagetracer.js version 1.2.6" ><path fill="rgb(102,146,125)" stroke="rgb(102,146,125)" stroke-width="1" opacity="0.7568627450980392" d="M 51 23 Q 68.1 23 75 34.5 Q 79.8 40.5 80 50 L 75.5 51 Q 65.5 48.5 59 42.5 L 53 32 L 51 31.5 L 52 29.5 L 51 23 Z " /><path fill="rgb(102,146,125)" stroke="rgb(102,146,125)" stroke-width="1" opacity="0.7568627450980392" d="M 62.5 58 Q 66.3 56.8 65 60.5 L 94 123 L 80.5 123 L 80 120.5 L 69 96 L 67 95.5 L 67.5 94 L 66 93.5 L 66 91.5 L 63.5 86 L 58 95.5 L 47 123 L 35.5 123 L 34.5 124 L 33 121.5 L 59 66.5 Q 56.5 65 60 63.5 L 62.5 58 Z " /><path fill="rgb(102,146,125)" stroke="rgb(102,146,125)" stroke-width="1" opacity="0.7568627450980392" d="M 122.5 59 L 136.5 60 L 143 63 L 142 69 L 138.5 69 L 136.5 67 L 129.5 65 L 123.5 65 Q 113.8 66.9 108 72 L 102 82.5 L 100 93.5 L 104 105.5 L 109.5 112 Q 115.9 118.6 129.5 118 L 137 116 L 137 101 L 125.5 101 Q 122.7 99.8 125 98.5 Q 124.5 94 125.5 94 L 138.5 94 L 143 96.5 L 144 99.5 L 144 116.5 L 141.5 120 L 128.5 124 L 123.5 123 L 121.5 123 Q 107 120.5 100 110.5 L 98 106 L 96 105.5 L 96 103.5 L 94 96.5 L 94 87.5 L 96 79.5 L 102 69 L 114.5 61 L 122.5 59 Z " /><path fill="rgb(102,146,125)" stroke="rgb(102,146,125)" stroke-width="1" opacity="0.7568627450980392" d="M 203.5 59 L 207 59.5 L 207 123 L 201.5 123 L 201 122.5 L 201 60 L 203.5 59 Z " /><path fill="rgb(102,146,125)" stroke="rgb(102,146,125)" stroke-width="1" opacity="0.7568627450980392" d="M 154 60 L 174.5 60 Q 181.9 62.1 186 67.5 Q 189.5 71 189 78.5 L 188 83.5 L 183.5 90 L 176 93.5 L 189 119.5 L 189 123 L 183.5 123 L 183 121.5 L 177 111.5 L 177 109.5 L 169.5 95 L 161 95 L 161 104.5 L 160 105.5 L 160 115.5 Q 162.3 116.7 161 121.5 Q 160 124 155.5 123 L 154 121.5 L 154 92.5 L 153 91.5 L 154 90.5 L 154 82.5 L 154 80.5 L 153 77.5 L 154 76.5 L 154 60 Z M 161 66 L 161 88 L 175 88 L 179 86 L 182 82 Q 184 73 180 71 Q 175 64 161 66 Z " /><path fill="rgb(102,146,125)" stroke="rgb(102,146,125)" stroke-width="1" opacity="0.7568627450980392" d="M 221 60 L 258.5 60 L 260 61.5 Q 260.8 65.3 258.5 66 L 235.5 66 L 234.5 67 L 233.5 66 L 227 66 L 227 88 L 255.5 88 L 256 88.5 L 256 94 L 227 94 L 227 117 L 260.5 117 L 261 117.5 L 261 123 L 221 123 L 221 98.5 L 221 96.5 L 221 60 Z " /><path fill="rgb(102,146,125)" stroke="rgb(102,146,125)" stroke-width="1" opacity="0.7568627450980392" d="M 269 60 Q 275.1 58.3 277 61.5 L 294.5 91 L 314.5 60 Q 321.8 57.4 320 63.5 L 298 99.5 L 298 123 L 291.5 123 L 290 121.5 L 291 120.5 L 291 100.5 L 280.5 82 L 279 81.5 L 279 79.5 L 269 63.5 L 269 60 Z " /><path fill="rgb(102,146,125)" stroke="rgb(102,146,125)" stroke-width="1" opacity="0.7568627450980392" d="M 328 60 L 366.5 60 L 367 60.5 L 367 66 L 335 66 L 335 88 L 363.5 88 L 364 88.5 L 364 94 L 351.5 94 L 350.5 95 L 349.5 94 L 335 94 L 335 117 L 367.5 117 L 368 117.5 L 368 123 L 331.5 123 L 330.5 124 L 329 122.5 L 329 94.5 L 328 93.5 L 329 92.5 L 329 73.5 L 328 72.5 L 328 60 Z " /><path fill="rgb(0,0,0)" stroke="rgb(0,0,0)" stroke-width="1" opacity="0" d="M 0 0 L 414 0 L 414 163 L 0 163 L 0 0 Z M 51 23 L 52 30 L 51 32 L 53 32 L 59 43 Q 65 49 76 51 L 80 50 Q 80 41 75 35 Q 68 23 51 23 Z M 63 58 L 60 64 Q 56 65 59 67 L 33 122 L 35 124 L 36 123 L 47 123 L 58 96 L 64 86 L 66 92 L 66 94 L 68 94 L 67 96 L 69 96 L 80 121 L 81 123 L 94 123 L 65 61 Q 66 57 63 58 Z M 123 59 L 115 61 L 102 69 L 96 80 L 94 88 L 94 97 L 96 104 L 96 106 L 98 106 L 100 111 Q 107 121 122 123 L 124 123 L 129 124 L 142 120 L 144 117 L 144 100 L 143 97 L 139 94 L 126 94 Q 125 94 125 99 Q 123 100 126 101 L 137 101 L 137 116 L 130 118 Q 116 119 110 112 L 104 106 L 100 94 L 102 83 L 108 72 Q 114 67 124 65 L 130 65 L 137 67 L 139 69 L 142 69 L 143 63 L 137 60 L 123 59 Z M 204 59 L 201 60 L 201 123 L 202 123 L 207 123 L 207 60 L 204 59 Z M 154 60 L 154 77 L 153 78 L 154 81 L 154 83 L 154 91 L 153 92 L 154 93 L 154 122 L 156 123 Q 160 124 161 122 Q 162 117 160 116 L 160 106 L 161 105 L 161 95 L 170 95 L 177 110 L 177 112 L 183 122 L 184 123 L 189 123 L 189 120 L 176 94 L 184 90 L 188 84 L 189 79 Q 190 71 186 68 Q 182 62 175 60 L 154 60 Z M 221 60 L 221 97 L 221 99 L 221 123 L 261 123 L 261 118 L 261 117 L 227 117 L 227 94 L 256 94 L 256 89 L 256 88 L 227 88 L 227 66 L 234 66 L 235 67 L 236 66 L 259 66 Q 261 65 260 62 L 259 60 L 221 60 Z M 269 60 L 269 64 L 279 80 L 279 82 L 281 82 L 291 101 L 291 121 L 290 122 L 292 123 L 298 123 L 298 100 L 320 64 Q 322 57 315 60 L 295 91 L 277 62 Q 275 58 269 60 Z M 328 60 L 328 73 L 329 74 L 329 93 L 328 94 L 329 95 L 329 123 L 331 124 L 332 123 L 368 123 L 368 118 L 368 117 L 335 117 L 335 94 L 350 94 L 351 95 L 352 94 L 364 94 L 364 89 L 364 88 L 335 88 L 335 66 L 367 66 L 367 61 L 367 60 L 328 60 Z " /><path fill="rgb(0,0,0)" stroke="rgb(0,0,0)" stroke-width="1" opacity="0" d="M 161 66 Q 174.5 63.8 180 70.5 Q 183.6 73.4 182 81.5 L 178.5 86 L 174.5 88 L 161 88 L 161 66 Z " /></svg>